<svg width="2186" height="2444" xmlns="http://www.w3.org/2000/svg" xmlns:xlink="http://www.w3.org/1999/xlink" xml:space="preserve" overflow="hidden"><g transform="translate(-4341 -961)"><path d="M5578.61 3400.42 5364.71 3400.42 5382.3 3405 5561.1 3405 5578.61 3400.42Z" fill="#FFFFFF" fill-rule="evenodd" fill-opacity="0.501961"/><path d="M5630.48 3395.83 5312.61 3395.83 5329.86 3400.42 5613.3 3400.42 5630.48 3395.83Z" fill="#FFFFFF" fill-rule="evenodd" fill-opacity="0.501961"/><path d="M5664.49 3391.25 5278.46 3391.25 5295.48 3395.83 5647.54 3395.83 5664.49 3391.25Z" fill="#FFFFFF" fill-rule="evenodd" fill-opacity="0.501961"/><path d="M5731.08 3377.5 5211.64 3377.5 5261.57 3391.25 5681.32 3391.25 5731.08 3377.5Z" fill="#FFFFFF" fill-rule="evenodd" fill-opacity="0.501961"/><path d="M4417 1274.13 4417.04 2337.27 4417.13 2351.02 4417.5 2369.35 4418.13 2387.68 4419 2406.01 4420.12 2424.34 4421.48 2438.09 4423.09 2456.42 4424.93 2474.75 4427.02 2493.08 4429.34 2511.41 4431.91 2529.74 4434.71 2543.49 4437.74 2561.82 4441 2580.15 4444.5 2593.89 4448.23 2612.22 4452.18 2630.55 4456.37 2644.3 4460.78 2662.63 4465.41 2676.38 4470.26 2694.71 4475.34 2708.46 4480.64 2726.79 4486.16 2740.53 4491.89 2758.86 4497.84 2772.61 4504 2786.36 4510.38 2804.69 4516.96 2818.44 4523.76 2832.18 4530.77 2845.93 4537.98 2859.68 4545.4 2873.43 4553.02 2891.76 4560.85 2905.5 4568.88 2919.25 4577.1 2933 4585.53 2946.75 4594.15 2955.91 4602.97 2969.66 4611.98 2983.41 4621.19 2997.16 4630.58 3010.9 4640.17 3024.65 4649.94 3033.82 4659.91 3047.56 4670.05 3056.73 4680.38 3070.48 4690.9 3084.22 4701.59 3093.39 4712.47 3107.14 4723.52 3116.3 4734.75 3125.47 4746.16 3139.21 4757.74 3148.38 4769.49 3157.54 4781.42 3171.29 4793.51 3180.46 4805.77 3189.62 4818.2 3198.79 4843.56 3217.12 4869.56 3235.45 4896.2 3253.78 4909.76 3258.36 4937.34 3276.69 4951.36 3281.27 4979.85 3299.6 4994.32 3304.18 5008.93 3313.35 5038.6 3322.51 5053.64 3331.68 5099.63 3345.43 5115.23 3354.59 5195.25 3377.5 5747.43 3377.5 5827.24 3354.59 5842.82 3345.43 5888.72 3331.68 5903.75 3322.51 5933.38 3313.35 5947.98 3304.18 5962.44 3299.6 5990.92 3281.27 6004.93 3276.69 6032.51 3258.36 6046.07 3253.78 6072.73 3235.45 6098.75 3217.12 6124.12 3198.79 6148.85 3180.46 6160.96 3171.29 6172.9 3157.54 6184.68 3148.38 6196.28 3139.21 6207.71 3125.47 6218.96 3116.3 6230.04 3107.14 6240.94 3093.39 6251.67 3084.22 6262.21 3070.48 6272.57 3056.73 6282.75 3047.56 6292.74 3033.82 6302.55 3024.65 6312.17 3010.9 6321.6 2997.16 6330.83 2983.41 6339.88 2969.66 6348.73 2955.91 6357.39 2946.75 6363.03 2937.58 5436.6 2937.58 5419.32 2933 5385.32 2933 5368.62 2928.42 5352.12 2928.42 5288.18 2910.09 5242.53 2896.34 5227.77 2887.17 5213.25 2882.59 5198.96 2873.43 5184.92 2868.84 5171.13 2859.68 5157.59 2850.51 5144.31 2845.93 5131.29 2836.77 5118.52 2827.6 5106.03 2818.44 5093.81 2804.69 5081.87 2795.52 5070.2 2786.36 5058.82 2777.19 5047.72 2763.45 5036.92 2754.28 5026.41 2740.53 5016.21 2726.79 5006.3 2717.62 4996.71 2703.87 4987.42 2690.13 4978.45 2676.38 4969.8 2662.63 4961.47 2648.88 4953.47 2635.14 4945.81 2621.39 4938.47 2607.64 4931.48 2589.31 4924.83 2575.56 4918.52 2561.82 4912.57 2543.49 4906.98 2529.74 4901.74 2511.41 4896.86 2497.66 4892.36 2479.33 4888.22 2461 4884.46 2447.25 4881.08 2428.92 4878.08 2410.59 4875.46 2392.26 4873.24 2373.93 4871.42 2355.6 4869.99 2337.27 4868.97 2318.94 4868.35 2300.61 4868.14 2282.28 4868.14 1892.77 4417 1274.13Z" fill="#FFFFFF" fill-rule="evenodd" fill-opacity="0.501961"/><path d="M6526.84 1274.13 6072.26 1897.35 6072.13 2282.28 6071.92 2300.61 6071.3 2318.94 6070.28 2337.27 6068.85 2355.6 6067.03 2373.93 6064.81 2392.26 6062.2 2410.59 6059.2 2428.92 6055.82 2447.25 6052.07 2461 6047.94 2479.33 6043.43 2497.66 6038.57 2511.41 6033.34 2529.74 6027.75 2543.49 6021.81 2561.82 6015.52 2575.56 6008.88 2589.31 6001.9 2607.64 5994.59 2621.39 5986.94 2635.14 5978.96 2648.88 5970.65 2662.63 5962.03 2676.38 5953.09 2690.13 5943.83 2703.87 5934.26 2717.62 5924.39 2726.79 5914.22 2740.53 5903.75 2754.28 5892.99 2763.45 5881.94 2777.19 5870.6 2786.36 5858.99 2795.52 5847.09 2804.69 5834.93 2818.44 5822.49 2827.6 5809.79 2836.77 5796.84 2845.93 5783.62 2850.51 5770.15 2859.68 5756.43 2868.84 5742.47 2873.43 5728.27 2882.59 5713.84 2887.17 5699.17 2896.34 5669.15 2905.5 5590.33 2928.42 5573.95 2928.42 5557.37 2933 5523.65 2933 5506.52 2937.58 6363.03 2937.58 6374.11 2919.25 6382.17 2905.5 6390.03 2891.76 6397.69 2873.43 6405.14 2859.68 6412.39 2845.93 6419.43 2832.18 6426.26 2818.44 6432.89 2804.69 6439.3 2786.36 6445.49 2772.61 6451.47 2758.86 6457.24 2740.53 6462.79 2726.79 6468.12 2708.46 6473.22 2694.71 6478.11 2676.38 6482.77 2662.63 6487.21 2644.3 6491.42 2630.55 6495.4 2612.22 6499.15 2593.89 6502.67 2580.15 6505.96 2561.82 6509.01 2543.49 6511.83 2529.74 6514.41 2511.41 6516.75 2493.08 6518.86 2474.75 6520.72 2456.42 6522.33 2438.09 6523.71 2424.34 6524.83 2406.01 6525.71 2387.68 6526.34 2369.35 6526.72 2351.02 6526.81 2337.27 6526.84 1274.13Z" fill="#FFFFFF" fill-rule="evenodd" fill-opacity="0.501961"/><path d="M4871.72 1045 4417 1045 4417 1274.13 5916.83 2598.48 5916.83 1970.67 4871.72 1045Z" fill="#FFFFFF" fill-rule="evenodd" fill-opacity="0.501961"/><path d="M6526.85 1045 6072.13 1045 5596.58 1480.34 5945.26 1787.37 6526.85 1274.13 6526.85 1045Z" fill="#FFFFFF" fill-rule="evenodd" fill-opacity="0.501961"/><path d="M5541.61 3360.42 5327.71 3360.42 5345.3 3365 5524.1 3365 5541.61 3360.42Z" fill="#FFFFFF" fill-rule="evenodd"/><path d="M5593.48 3355.83 5275.61 3355.83 5292.86 3360.42 5576.3 3360.42 5593.48 3355.83Z" fill="#FFFFFF" fill-rule="evenodd"/><path d="M5627.49 3351.25 5241.46 3351.25 5258.48 3355.83 5610.54 3355.83 5627.49 3351.25Z" fill="#FFFFFF" fill-rule="evenodd"/><path d="M5694.08 3337.5 5174.64 3337.5 5224.57 3351.25 5644.32 3351.25 5694.08 3337.5Z" fill="#FFFFFF" fill-rule="evenodd"/><path d="M4380 1234.13 4380.04 2297.27 4380.13 2311.02 4380.5 2329.35 4381.13 2347.68 4382 2366.01 4383.12 2384.34 4384.48 2398.09 4386.09 2416.42 4387.93 2434.75 4390.02 2453.08 4392.34 2471.41 4394.91 2489.74 4397.71 2503.49 4400.74 2521.82 4404 2540.15 4407.5 2553.89 4411.23 2572.22 4415.18 2590.55 4419.37 2604.3 4423.78 2622.63 4428.41 2636.38 4433.26 2654.71 4438.34 2668.46 4443.64 2686.79 4449.16 2700.53 4454.89 2718.86 4460.84 2732.61 4467 2746.36 4473.38 2764.69 4479.96 2778.44 4486.76 2792.18 4493.77 2805.93 4500.98 2819.68 4508.4 2833.43 4516.02 2851.76 4523.85 2865.5 4531.88 2879.25 4540.1 2893 4548.53 2906.75 4557.15 2915.91 4565.97 2929.66 4574.98 2943.41 4584.19 2957.16 4593.58 2970.9 4603.17 2984.65 4612.94 2993.82 4622.91 3007.56 4633.05 3016.73 4643.38 3030.48 4653.9 3044.22 4664.59 3053.39 4675.47 3067.14 4686.52 3076.3 4697.75 3085.47 4709.16 3099.21 4720.74 3108.38 4732.49 3117.54 4744.42 3131.29 4756.51 3140.46 4768.77 3149.62 4781.2 3158.79 4806.56 3177.12 4832.56 3195.45 4859.2 3213.78 4872.76 3218.36 4900.34 3236.69 4914.36 3241.27 4942.85 3259.6 4957.32 3264.18 4971.93 3273.35 5001.6 3282.51 5016.64 3291.68 5062.63 3305.43 5078.23 3314.59 5158.24 3337.5 5710.43 3337.5 5790.24 3314.59 5805.81 3305.43 5851.72 3291.68 5866.75 3282.51 5896.38 3273.35 5910.98 3264.18 5925.44 3259.6 5953.92 3241.27 5967.93 3236.69 5995.51 3218.36 6009.07 3213.78 6035.72 3195.45 6061.75 3177.12 6087.12 3158.79 6111.85 3140.46 6123.96 3131.29 6135.9 3117.54 6147.68 3108.38 6159.28 3099.21 6170.71 3085.47 6181.96 3076.3 6193.04 3067.14 6203.94 3053.39 6214.67 3044.22 6225.21 3030.48 6235.57 3016.73 6245.75 3007.56 6255.74 2993.82 6265.55 2984.65 6275.17 2970.9 6284.59 2957.16 6293.83 2943.41 6302.88 2929.66 6311.73 2915.91 6320.39 2906.75 6326.03 2897.58 5399.6 2897.58 5382.32 2893 5348.32 2893 5331.62 2888.42 5315.12 2888.42 5251.18 2870.09 5205.53 2856.34 5190.77 2847.17 5176.25 2842.59 5161.96 2833.43 5147.92 2828.84 5134.13 2819.68 5120.59 2810.51 5107.31 2805.93 5094.29 2796.77 5081.52 2787.6 5069.03 2778.44 5056.81 2764.69 5044.87 2755.52 5033.2 2746.36 5021.82 2737.19 5010.72 2723.45 4999.92 2714.28 4989.41 2700.53 4979.21 2686.79 4969.3 2677.62 4959.71 2663.87 4950.42 2650.13 4941.45 2636.38 4932.8 2622.63 4924.47 2608.88 4916.47 2595.14 4908.8 2581.39 4901.47 2567.64 4894.48 2549.31 4887.83 2535.56 4881.52 2521.82 4875.57 2503.49 4869.98 2489.74 4864.74 2471.41 4859.86 2457.66 4855.36 2439.33 4851.22 2421 4847.46 2407.25 4844.08 2388.92 4841.08 2370.59 4838.46 2352.26 4836.24 2333.93 4834.42 2315.6 4832.99 2297.27 4831.97 2278.94 4831.35 2260.61 4831.14 2242.28 4831.14 1852.77 4380 1234.13Z" fill="#FFFFFF" fill-rule="evenodd"/><path d="M6489.84 1234.13 6035.26 1857.35 6035.13 2242.28 6034.92 2260.61 6034.3 2278.94 6033.28 2297.27 6031.85 2315.6 6030.03 2333.93 6027.81 2352.26 6025.2 2370.59 6022.2 2388.92 6018.82 2407.25 6015.07 2421 6010.94 2439.33 6006.43 2457.66 6001.57 2471.41 5996.34 2489.74 5990.75 2503.49 5984.81 2521.82 5978.52 2535.56 5971.88 2549.31 5964.9 2567.64 5957.59 2581.39 5949.94 2595.14 5941.96 2608.88 5933.65 2622.63 5925.03 2636.38 5916.08 2650.13 5906.83 2663.87 5897.26 2677.62 5887.39 2686.79 5877.22 2700.53 5866.75 2714.28 5855.99 2723.45 5844.94 2737.19 5833.6 2746.36 5821.99 2755.52 5810.09 2764.69 5797.93 2778.44 5785.49 2787.6 5772.79 2796.77 5759.83 2805.93 5746.62 2810.51 5733.15 2819.68 5719.43 2828.84 5705.47 2833.43 5691.27 2842.59 5676.84 2847.17 5662.17 2856.34 5632.15 2865.5 5553.33 2888.42 5536.95 2888.42 5520.37 2893 5486.65 2893 5469.51 2897.58 6326.03 2897.58 6337.11 2879.25 6345.17 2865.5 6353.03 2851.76 6360.69 2833.43 6368.14 2819.68 6375.39 2805.93 6382.43 2792.18 6389.26 2778.44 6395.89 2764.69 6402.29 2746.36 6408.49 2732.61 6414.47 2718.86 6420.24 2700.53 6425.79 2686.79 6431.12 2668.46 6436.22 2654.71 6441.11 2636.38 6445.77 2622.63 6450.21 2604.3 6454.42 2590.55 6458.4 2572.22 6462.15 2553.89 6465.67 2540.15 6468.96 2521.82 6472.01 2503.49 6474.83 2489.74 6477.41 2471.41 6479.75 2453.08 6481.85 2434.75 6483.71 2416.42 6485.33 2398.09 6486.71 2384.34 6487.83 2366.01 6488.71 2347.68 6489.34 2329.35 6489.72 2311.02 6489.81 2297.27 6489.84 1234.13Z" fill="#FFFFFF" fill-rule="evenodd"/><path d="M4834.72 1005 4380 1005 4380 1234.13 5879.83 2558.48 5879.83 1930.67 4834.72 1005Z" fill="#FFFFFF" fill-rule="evenodd"/><path d="M6489.85 1005 6035.13 1005 5559.58 1440.34 5908.26 1747.37 6489.85 1234.13 6489.85 1005Z" fill="#FFFFFF" fill-rule="evenodd"/><path d="M5871.26 1704.93 6452.85 1190.31 6452.85 963 5998.13 963 5522.58 1396.42 5871.26 1704.93Z" stroke="#FFFFFF" stroke-width="3.77854" stroke-linejoin="round" stroke-miterlimit="10" fill="none" fill-rule="evenodd"/><path d="M4343 1190.31 5842.83 2517.43 5842.83 1887.93 4797.72 963.003 4343 963 4343 1190.31Z" stroke="#FFFFFF" stroke-width="3.77854" stroke-linejoin="round" stroke-miterlimit="10" fill="none" fill-rule="evenodd"/><path d="M5998.26 1815.41 6452.84 1190.31 6452.84 2248.37 6452.72 2266.83 6452.34 2285.18 6451.71 2303.43 6450.83 2321.56 6449.71 2339.58 6448.33 2357.5 6446.71 2375.29 6444.85 2392.97 6442.75 2410.54 6440.41 2427.98 6437.83 2445.31 6435.01 2462.51 6431.96 2479.59 6428.67 2496.55 6425.15 2513.38 6421.4 2530.08 6417.42 2546.65 6413.21 2563.1 6408.77 2579.41 6404.11 2595.58 6399.22 2611.63 6394.12 2627.53 6388.79 2643.3 6383.24 2658.92 6377.47 2674.41 6371.49 2689.75 6365.29 2704.95 6358.89 2720.01 6352.26 2734.91 6345.43 2749.67 6338.39 2764.28 6331.14 2778.74 6323.69 2793.04 6316.03 2807.19 6308.17 2821.18 6300.11 2835.02 6291.85 2848.7 6283.39 2862.21 6274.73 2875.56 6265.88 2888.75 6256.83 2901.78 6247.59 2914.64 6238.17 2927.33 6228.55 2939.85 6218.74 2952.2 6208.75 2964.38 6198.57 2976.38 6188.21 2988.21 6177.67 2999.86 6166.94 3011.33 6156.04 3022.63 6144.96 3033.74 6133.71 3044.67 6122.28 3055.41 6110.68 3065.97 6098.9 3076.34 6086.96 3086.52 6074.85 3096.51 6062.57 3106.31 6050.12 3115.91 6037.52 3125.32 6024.75 3134.54 6011.82 3143.55 5998.72 3152.37 5985.48 3160.98 5972.07 3169.4 5958.51 3177.61 5944.8 3185.61 5930.93 3193.41 5916.92 3200.99 5902.75 3208.37 5888.44 3215.54 5873.98 3222.49 5859.38 3229.23 5844.63 3235.76 5829.75 3242.06 5814.72 3248.15 5799.55 3254.02 5784.25 3259.66 5768.81 3265.08 5753.24 3270.28 5737.54 3275.25 5721.7 3279.99 5705.74 3284.51 5689.65 3288.79 5673.43 3292.84 5657.08 3296.66 5640.62 3300.24 5624.03 3303.58 5607.32 3306.69 5590.49 3309.55 5573.54 3312.18 5556.48 3314.56 5539.3 3316.7 5522.01 3318.59 5504.61 3320.23 5487.1 3321.63 5469.48 3322.77 5451.75 3323.66 5433.92 3324.3 5415.98 3324.69 5397.94 3324.82 5379.8 3324.69 5361.76 3324.3 5343.83 3323.66 5326.01 3322.77 5308.3 3321.63 5290.71 3320.23 5273.23 3318.59 5255.86 3316.7 5238.61 3314.56 5221.48 3312.18 5204.46 3309.55 5187.57 3306.69 5170.8 3303.58 5154.16 3300.24 5137.64 3296.66 5121.24 3292.84 5104.98 3288.79 5088.84 3284.51 5072.84 3279.99 5056.97 3275.25 5041.23 3270.28 5025.63 3265.08 5010.16 3259.66 4994.83 3254.02 4979.64 3248.15 4964.6 3242.06 4949.69 3235.76 4934.93 3229.23 4920.32 3222.49 4905.85 3215.54 4891.53 3208.37 4877.36 3200.99 4863.34 3193.41 4849.47 3185.61 4835.76 3177.61 4822.2 3169.4 4808.8 3160.98 4795.56 3152.37 4782.48 3143.55 4769.56 3134.54 4756.8 3125.32 4744.2 3115.91 4731.77 3106.31 4719.51 3096.51 4707.42 3086.52 4695.49 3076.34 4683.74 3065.97 4672.16 3055.41 4660.75 3044.67 4649.52 3033.74 4638.47 3022.63 4627.59 3011.33 4616.9 2999.86 4606.38 2988.21 4596.05 2976.38 4585.91 2964.38 4575.94 2952.2 4566.17 2939.85 4556.58 2927.33 4547.19 2914.64 4537.98 2901.78 4528.97 2888.75 4520.15 2875.56 4511.53 2862.21 4503.1 2848.7 4494.88 2835.02 4486.85 2821.18 4479.02 2807.19 4471.4 2793.04 4463.98 2778.74 4456.77 2764.28 4449.76 2749.67 4442.96 2734.91 4436.38 2720.01 4430 2704.95 4423.84 2689.75 4417.89 2674.41 4412.16 2658.92 4406.64 2643.3 4401.34 2627.53 4396.26 2611.63 4391.41 2595.58 4386.78 2579.41 4382.37 2563.1 4378.18 2546.65 4374.23 2530.08 4370.5 2513.38 4367 2496.55 4363.74 2479.59 4360.71 2462.51 4357.91 2445.31 4355.34 2427.98 4353.02 2410.54 4350.93 2392.97 4349.09 2375.29 4347.48 2357.5 4346.12 2339.58 4345 2321.56 4344.13 2303.43 4343.5 2285.18 4343.13 2266.83 4343 2248.37 4343 1190.31 4794.14 1810.67 4794.14 2198.21 4794.35 2217.25 4794.97 2236.11 4795.99 2254.78 4797.42 2273.25 4799.24 2291.52 4801.46 2309.59 4804.08 2327.45 4807.08 2345.09 4810.46 2362.52 4814.22 2379.72 4818.36 2396.7 4822.86 2413.44 4827.74 2429.95 4832.98 2446.22 4838.57 2462.24 4844.52 2478.01 4850.83 2493.53 4857.48 2508.78 4864.47 2523.78 4871.8 2538.5 4879.47 2552.95 4887.47 2567.13 4895.8 2581.02 4904.45 2594.62 4913.42 2607.94 4922.71 2620.95 4932.3 2633.67 4942.21 2646.08 4952.41 2658.18 4962.92 2669.97 4973.72 2681.44 4984.82 2692.58 4996.2 2703.4 5007.87 2713.89 5019.81 2724.03 5032.03 2733.84 5044.52 2743.3 5057.29 2752.41 5070.31 2761.16 5083.59 2769.55 5097.13 2777.58 5110.92 2785.23 5124.96 2792.52 5139.25 2799.42 5153.77 2805.95 5168.53 2812.08 5183.52 2817.83 5198.74 2823.17 5214.18 2828.12 5229.85 2832.66 5245.73 2836.78 5261.82 2840.5 5278.12 2843.79 5294.62 2846.66 5311.32 2849.1 5328.22 2851.11 5345.32 2852.68 5362.6 2853.8 5380.06 2854.48 5397.71 2854.71 5415.2 2854.48 5432.51 2853.8 5449.65 2852.68 5466.61 2851.11 5483.37 2849.1 5499.95 2846.66 5516.33 2843.79 5532.51 2840.5 5548.48 2836.78 5564.25 2832.66 5579.81 2828.12 5595.15 2823.17 5610.27 2817.83 5625.17 2812.08 5639.84 2805.95 5654.27 2799.42 5668.47 2792.52 5682.43 2785.23 5696.15 2777.58 5709.62 2769.55 5722.83 2761.16 5735.79 2752.41 5748.49 2743.3 5760.93 2733.84 5773.09 2724.03 5784.99 2713.89 5796.6 2703.4 5807.94 2692.58 5818.99 2681.44 5829.75 2669.97 5840.22 2658.18 5850.39 2646.08 5860.26 2633.67 5869.83 2620.95 5879.08 2607.94 5888.03 2594.62 5896.65 2581.02 5904.96 2567.13 5912.94 2552.95 5920.59 2538.5 5927.9 2523.78 5934.88 2508.78 5941.52 2493.53 5947.81 2478.01 5953.75 2462.24 5959.34 2446.22 5964.57 2429.95 5969.43 2413.44 5973.94 2396.7 5978.07 2379.72 5981.82 2362.52 5985.2 2345.09 5988.2 2327.45 5990.81 2309.59 5993.03 2291.52 5994.85 2273.25 5996.28 2254.78 5997.3 2236.11 5997.92 2217.25 5998.13 2198.21 5998.26 1815.41Z" stroke="#FFFFFF" stroke-width="3.77854" stroke-linejoin="round" stroke-miterlimit="10" fill="none" fill-rule="evenodd"/></g></svg>